<svg xmlns="http://www.w3.org/2000/svg"
     width="299.86568" height="251.15546" viewBox="0 0 299.86568 251.15546" x="0px"
     y="0px" version="1.1">

    <title>computer2</title>
    <g id="Слой_2" data-name="Слой 2">
        <g id="Capa_1" data-name="Capa 1">
            <g>
                <path
                        d="M293.33161,120.41019c1-14.2,2-28.3,3.2-42.3,1-14.4,4-30.1,3.2-44.5-.6-8.7-5.5-11.1-13.3-12.9-13.3-3-26.7-6.1-40-8.7-26.9-5.5-54-10.1-81.5-11.5-7.9-.4-15.6-.6-23.5-.4-5.9,0-14.4-.6-20.2,1-11.5,3.6-9.3,18.2-10.1,27.7-2.2,28.9-4.2,58-6.5,86.9a635.73834,635.73834,0,0,0-102.5,68.5,6.08461,6.08461,0,0,0,1.8,10.3c26.5,10.3,53.2,20.6,79.7,30.9,25.3,9.7,50.9,19.4,77.6,24.9,21.8,4.4,42.5-9.3,60.9-19.8,20.4-11.7,41-25.5,58.2-41.9,7.3-6.9,8.5-14.2,9.3-23.9C291.03162,150.11018,292.03162,135.41019,293.33161,120.41019Z"
                        style="
        fill: #b6c8e8;
      "></path>
                <path
                        d="M273.63159,44.01018c0-3.4-2-6.1-5.5-6.5-26.5-4-53-8.1-79.5-12.1-12.9-2-25.9-3.8-38.8-5.9-6.3-1-15.2-1.4-16.6,5.7a5.18928,5.18928,0,0,0-1.6,3.8c-.8,16.8-1.6,33.6-2.4,50.3-.4,7.7-.8,15.6-1.2,23.3-.2,5.3-1.8,11.9,0,17,1.4,3.8,4.4,5.9,8.3,7.1,8.1,2.8,16.8,4.7,25.1,6.9,16,4.4,32.1,8.7,48.1,13.1,14.6,4,29.1,9.3,44.1,11.9,11.1,2,16-4.7,17.2-15C274.53162,110.91019,273.63159,77.01018,273.63159,44.01018Z"
                        style="
        fill: #57455e;
      "></path>
                <path
                        d="M242.53162,168.71018q-60.9-18.15-121.9-36.2a6.45253,6.45253,0,0,0-8.3-1,424.17385,424.17385,0,0,0-40.8,30.9c-3.6,3.2-2.2,8.5,1.8,10.3,31.5,14.8,63.5,28.7,95.6,41.9,13.3,5.5,23.7,11.7,35.8,1.4,13.7-11.7,26.5-24.9,39.4-37.2C247.43161,176.21018,247.2316,170.21018,242.53162,168.71018Z"
                        style="
        fill: #56597a;
      "></path>
                <path
                        d="M128.13159,203.31019a87.834,87.834,0,0,0-14.8-7.9c-4.2-1.8-8.5-3.4-12.9-2a4.92945,4.92945,0,0,0-3.4,1.6c-3.8,3.6-9.3,8.5-5.1,14.2,3.2,4.4,11.1,6.5,16,8.7,4.9,2.4,10.3,6.1,15.8,3.2,4.7-2.4,6.3-7.5,6.9-12.3A6.29013,6.29013,0,0,0,128.13159,203.31019Z"
                        style="
        fill: #56597a;
      "></path>
                <path
                        d="M239.33161,63.81019c-27.5-5.7-55-11.3-82.5-17-7.7-1.6-8.5,10.5-1,12.1,27.5,5.7,55,11.3,82.5,17C245.93161,77.61019,247.03162,65.41019,239.33161,63.81019Z"
                        style="
        fill: #f087b1;
      "></path>
                <path
                        d="M242.93161,85.81019c-16.4-3.4-32.8-6.7-49.1-10.1-7.7-1.6-8.5,10.5-1,12.1,16.4,3.4,32.8,6.7,49.1,10.1C249.63159,99.41019,250.43161,87.51018,242.93161,85.81019Z"
                        style="
        fill: #74a3d7;
      "></path>
                <path
                        d="M210.63159,105.11018c-3-.8-6.3-1.4-9.3-2.2s-6.7.2-7.7,3.6c-.8,2.8.4,7.1,3.6,7.7l9.3,2.2c3,.8,6.7-.2,7.7-3.6C215.03162,110.11018,213.83161,105.91019,210.63159,105.11018Z"
                        style="
        fill: #f7d16f;
      "></path>
                <path
                        d="M240.13159,109.71018a33.6187,33.6187,0,0,0-15.4-2.2c-3.2.2-5.5,4-4.9,7.1.6,3.4,3.8,5.1,7.1,4.9a19.5501,19.5501,0,0,1,8.9,1.6,6.0941,6.0941,0,0,0,4.3-11.4Z"
                        style="
        fill: #f7d16f;
      "></path>
                <path
                        d="M234.83161,179.71018c-8.7-2.4-17.2-4.9-25.7-7.5,2.4-2.6,4.7-5.5,7.1-8.1,5.1-5.9-3.6-14.6-8.5-8.5-3.6,4.2-7.3,8.5-11.1,12.7-6.7-2.2-13.1-4.4-19.8-6.7,2-2,3.8-4,5.9-6.1,5.5-5.7-3-14.2-8.5-8.5-3.2,3.4-6.7,6.7-9.9,10.1-8.3-3-16.4-6.3-24.5-9.5a30.76,30.76,0,0,0,2.4-2.6c5.3-5.7-3.2-14.4-8.5-8.5-2,2-3.8,4-5.9,6.1-8.5-3.6-17-7.3-25.3-11.1-7.1-3.2-13.1,7.1-6.1,10.5,7.5,3.4,14.8,6.7,22.2,9.9l-8.9,8.9c-8.3-3.4-16.4-7.1-24.7-10.7-7.1-3.2-13.3,7.3-6.1,10.5,7.1,3,14.2,6.3,21.2,9.3-2.2,2.2-4.7,4.2-6.9,6.5-5.9,5.3,2.8,13.7,8.5,8.5,3.6-3.2,7.1-6.5,10.7-9.7,8.1,3.4,16.2,6.7,24.5,10.1l-4.9,4.9c-5.5,5.7,3,14.2,8.5,8.5,2.8-2.8,5.7-5.7,8.5-8.7,6.7,2.6,13.3,5.3,20,7.9-3,3.2-6.3,6.3-9.3,9.5-5.7,5.5,3,14.2,8.5,8.5,4.4-4.4,8.9-8.9,13.1-13.3,10.9,4,21.8,8.1,32.8,11.9,7.3,2.6,10.5-9.1,3.2-11.7-9.1-3.2-18-6.5-26.9-9.7,3.2-3.4,6.5-7.1,9.7-10.5,10.3,3.2,20.8,6.3,31.3,9.1C239.13159,193.41019,242.33161,181.71018,234.83161,179.71018Zm-88.7-4.1c-8.1-3.2-16-6.5-24.1-9.9,3-2.8,5.9-5.9,8.9-8.9,8.1,3.2,16,6.5,24.3,9.5Zm32.1,12.6c-6.7-2.4-13.3-5.1-20-7.7,3-3,6.1-6.3,9.1-9.3,6.7,2.4,13.3,4.7,20.2,7.1C184.7316,181.5102,181.53162,184.91019,178.2316,188.21018Z"
                        style="fill: #57455e;"></path>
            </g>
        </g>
    </g>
</svg>
