<svg version="1.1" id="Capa_1" xmlns="http://www.w3.org/2000/svg" x="0px"
     y="0px" width="273.6px" height="404.2px" viewBox="0 0 273.6 404.2" style="height: 142px !important;"
     xml:space="preserve">

                                    <g>
                                        <path d="M237,374.9c-0.9-56.7-1.3-113.5-2.6-170.2c-0.3-12-5.6-15.2-15.1-24.5c-10.2-10-20-25.3-30.7-34.9
        c-23.5-21.3-44.4-44.8-62.6-69.8c-1.9-2.6-6.8-3.3-8.9-0.8c-29.3,35.2-63.8,77.6-102.4,104.7c-3,2.1-2.5,5.6-0.5,7.7
        c-8,52.9-12.4,95.4-13.8,149c-0.4,13.6-0.5,27.2-0.4,40.8c0,8.7,0.5,17.6,11.5,20.9c12,3.6,27.3,1.7,39.7,2
        c16.1,0.4,32.1,0.8,48.2,1.2c30.9,0.8,61.8,1.6,92.6,2.4c8,0.2,16.1,0.4,24.1,0.6c4.9,0.1,10.7,0.8,15.1-1.4
        C240.7,397.8,237.1,383.1,237,374.9z" style="fill:#ECECEC;"></path>
                                        <path d="M237.1,197.3c-6-11.3-13.3-21.6-21.3-31.4c2.1-18.7,4.5-37.7,5-56.5c0.2-5.3,0.4-10-4.6-13
        c-6-3.6-16.7-3.2-23.4-3.4c-2.4-0.1-5.3,1.9-5.8,4.4c-2,10.8-3.5,21.6-4.5,32.6c-19.3-19.9-38.6-39.7-57.8-59.6
        c-2.2-2.3-6.2-2.3-8.4,0C78.8,109.2,41.3,148.1,3.8,187c-5.3,5.5,3.1,14,8.4,8.4C48.3,158,84.4,120.6,120.5,83.1
        c19.2,19.8,38.3,39.5,57.5,59.3c18.2,18.8,36.4,37.6,48.7,60.9C230.4,210.1,240.7,204.1,237.1,197.3z"
                                              style="fill:#EF86B0;"></path>
                                        <path d="M156.6,194c-2.5-17.1-17.3-32.9-34.6-33.7c-0.4-0.1-0.7-0.1-1.1-0.2c-0.9-0.8-2.2-1.3-3.9-1.1
        c-20.6,2-35.3,19.3-34.3,40.1c1.1,21.8,15.8,36.9,37.9,34.6c8.7-0.9,16.8-4.3,22.9-9.6c1.6-1.1,3.1-2.3,4.4-3.4
        C155.6,214,158,204,156.6,194z" style="fill:#B4C7E7;"></path>
                                        <path d="M160.1,358.2c-0.3-10.5,0.1-21.6-3.4-31.7c-5.5-16-21.6-29.8-38.4-32.5c-17.3-2.8-32.4,8.9-39.1,24.3
        c-5.5,12.8-5.5,26.4-5.3,40c-1.8,12.5-2.4,25.3-3.6,36.9c-0.3,3.2,2.8,6.1,5.9,6.1c26.2-0.1,52.5,0.1,78.7,0.6
        c3.1,0.1,6.2-2.6,6.1-5.9C160.7,383.5,160.4,370.8,160.1,358.2z" style="fill:#C39A8A;"></path>
                                        <path d="M152,348.7c-7.7,0-7.7,11.9,0,11.9C159.7,360.7,159.7,348.7,152,348.7z"
                                              style="fill:#57455D;"></path>
                                        <path d="M158,193.7c-11.9-1.3-23.7-2.2-35.6-2.5c0.5-10.2,1.1-20.4,2.1-30.6c0.7-7.6-11.2-7.6-11.9,0
        c-0.9,10.1-1.6,20.2-2.1,30.4c-10,0-20,0.3-30,1c-7.6,0.5-7.7,12.5,0,11.9c9.9-0.7,19.7-1,29.6-1c-0.2,8.6-0.3,17.3-0.1,25.9
        c0,0.1,0,0.2,0,0.4c0,0.7,0,1.3,0.1,2c0.2,7.7,12.1,7.7,11.9,0c-0.2-9.4-0.2-18.7,0.1-28.1c12,0.3,24.1,1.2,36.1,2.5
        C165.6,206.5,165.5,194.5,158,193.7z" style="fill:#57455D;"></path>
                                        <path d="M264.1,14.7c0-10.1-11.5-17.1-21.6-13.8c-13.1,4.3-19.8,18.9-21.3,32.1c-16.9,4.9-22.5,24.1-15.9,40.5
        c1.2,3.1,4.2,4.2,6.8,3.9c1.3,1.4,3.1,2.6,5.3,3.2c7,1.9,12.1-1.7,15.5-6.9c10.3,4.4,26.2-8.1,30-18.6c1.6-4.3,1.4-7.3,4.2-10.8
        c2.9-3.7,5.5-6.4,6.3-11.3C274.6,24.9,270.5,18.3,264.1,14.7z" style="fill:#74A2D6;"></path>
                                    </g>
                                </svg>
